<svg width="81" height="22" viewBox="0 0 81 22" fill="none" xmlns="http://www.w3.org/2000/svg">
<path d="M22.2061 14.9628C19.9469 14.9628 18.4513 13.2514 18.0341 12.5885C18.5694 8.39483 20.1359 7.0689 22.2061 7.0689C24.2528 7.0689 25.8429 8.67235 25.8429 11.0158C25.8429 13.3593 24.2528 14.9628 22.2061 14.9628ZM22.2061 4.49414C18.5222 4.49414 16.4598 6.84535 15.8694 9.26593C15.2003 8.03251 14.7044 6.38282 14.3187 4.84875H9.22565V11.0544C9.22565 13.3054 8.17872 14.9705 6.13207 14.9705C4.08542 14.9705 2.91254 13.3054 2.91254 11.0544L2.93615 4.84875H0V11.0544C0 12.866 0.598251 14.508 1.69242 15.6797C2.81808 16.89 4.35306 17.5221 6.13207 17.5221C9.67434 17.5221 12.1461 14.8626 12.1461 11.0544V6.88389C12.516 8.25607 13.3977 10.8925 15.0822 13.2052L13.5079 21.9856H16.4913L17.5303 15.7645C17.8688 16.042 18.2309 16.2887 18.6166 16.5123C19.6163 17.129 20.7577 17.4759 21.9385 17.5144C21.9385 17.5144 22.1195 17.5221 22.214 17.5221C25.8665 17.5221 28.7711 14.7547 28.7711 11.0158C28.7711 7.27704 25.8586 4.49414 22.2061 4.49414Z" fill="#14A800"/>
<path d="M64.3908 6.17503V4.84911H61.5098V17.1293H64.4302V12.319C64.4302 9.3588 64.7057 7.23115 68.7596 7.50867V4.70264C66.8704 4.56388 65.3984 4.94932 64.3908 6.17503Z" fill="#14A800"/>
<path d="M44.1141 4.84961L41.9966 13.4373L39.7374 4.84961H36.022L33.7549 13.4373L31.6453 4.84961H28.6855L31.9287 17.1376H35.4395L37.8797 8.41111L40.2963 17.1376H43.8071L47.2392 4.84961H44.1141Z" fill="#14A800"/>
<path d="M53.6704 14.9705C51.5923 14.9705 50.0337 13.3671 50.0337 11.0158C50.0337 8.66464 51.6002 7.0689 53.6704 7.0689C55.7171 7.0689 57.3072 8.67235 57.3072 11.0158C57.3072 13.3593 55.7171 14.9705 53.6704 14.9705ZM53.6704 4.49414C49.9943 4.49414 47.1133 7.28475 47.1133 11.0158C47.1133 14.7469 49.9943 17.5144 53.6704 17.5144C57.3229 17.5144 60.2276 14.7469 60.2276 11.0158C60.2276 7.28475 57.3308 4.49414 53.6704 4.49414Z" fill="#14A800"/>
<path d="M72.9478 11.0931H73.6248L77.7023 17.1368H81.0006L76.309 10.4378C78.584 9.56671 80.1111 7.2926 80.1111 4.84888H77.1985C77.1985 7.50074 75.0653 8.50289 72.9478 8.50289V0H70.0195V17.1368H72.9399L72.9478 11.0931Z" fill="#14A800"/>
</svg>
